<svg width="743" height="490" viewBox="0 0 743 490" fill="none" xmlns="http://www.w3.org/2000/svg">
<path d="M719.429 4.0234L598.704 73.7508L719.452 143.438L719.429 4.0234ZM442.041 473.088L437.101 484.105L442.041 473.088ZM450.252 470.431L460.709 476.466L450.252 470.431ZM198.449 363.863L203.389 352.846L198.449 363.863ZM65.9697 516.478C85.3226 493.683 161.161 413.99 199.896 373.624L182.473 356.905C144.047 396.949 67.5217 477.339 47.5619 500.849L65.9697 516.478ZM193.509 374.88L437.101 484.105L446.98 462.071L203.389 352.846L193.509 374.88ZM460.709 476.466L675.57 104.172L654.656 92.1022L439.795 464.396L460.709 476.466ZM437.101 484.105C445.765 487.99 455.963 484.69 460.709 476.466L439.795 464.396C441.24 461.893 444.344 460.889 446.98 462.071L437.101 484.105ZM199.896 373.624C198.214 375.377 195.639 375.835 193.509 374.88L203.389 352.846C196.295 349.666 187.921 351.227 182.473 356.905L199.896 373.624Z" fill="#3D0072"/>
<path d="M742.773 -3.92524e-06L622.048 69.7274L742.796 139.415L742.773 -3.92524e-06ZM465.384 469.065L460.444 480.082L465.384 469.065ZM473.596 466.408L484.053 472.443L473.596 466.408ZM214.529 361.241L223.24 369.6L214.529 361.241ZM221.792 359.84L226.732 348.823L221.792 359.84ZM89.3135 512.454C108.666 489.659 184.505 409.966 223.24 369.6L205.817 352.881C167.39 392.926 90.8654 473.316 70.9056 496.826L89.3135 512.454ZM216.853 370.856L460.444 480.082L470.324 458.048L226.732 348.823L216.853 370.856ZM484.053 472.443L698.914 100.149L678 88.0788L463.139 460.373L484.053 472.443ZM460.444 480.082C469.108 483.966 479.307 480.667 484.053 472.443L463.139 460.373C464.583 457.87 467.687 456.866 470.324 458.048L460.444 480.082ZM223.24 369.6C221.558 371.353 218.982 371.812 216.853 370.856L226.732 348.823C219.639 345.642 211.265 347.204 205.817 352.881L223.24 369.6Z" fill="#0D9488"/>
</svg>
